<?xml version="1.0" standalone="no"?>
<!DOCTYPE svg PUBLIC "-//W3C//DTD SVG 20010904//EN"
 "http://www.w3.org/TR/2001/REC-SVG-20010904/DTD/svg10.dtd">
<svg version="1.0" xmlns="http://www.w3.org/2000/svg"
 width="2000.000000pt" height="1247.000000pt" viewBox="0 0 2000.000000 1247.000000"
 preserveAspectRatio="xMidYMid meet">

<g transform="translate(0.000000,1247.000000) scale(0.100000,-0.100000)"
fill="#000000" stroke="none">
<path d="M8690 10208 c-718 -1244 -1317 -2283 -1333 -2310 l-27 -48 48 0 49 0
1284 2225 c706 1223 1286 2225 1289 2225 3 0 583 -1002 1289 -2225 l1284
-2225 49 0 c39 0 47 3 41 14 -4 7 -604 1047 -1333 2309 -729 1263 -1327 2296
-1330 2296 -3 0 -592 -1017 -1310 -2261z"/>
<path d="M625 7379 c-304 -46 -529 -234 -590 -491 -22 -93 -22 -1213 0 -1306
54 -230 235 -401 500 -474 73 -19 109 -22 424 -26 387 -4 492 4 619 47 112 39
183 83 267 166 77 76 147 195 160 274 9 52 21 53 29 2 12 -76 84 -201 160
-276 84 -83 155 -127 268 -166 127 -44 233 -52 619 -47 312 4 351 7 424 26
126 34 236 94 319 172 84 81 132 155 167 263 l25 78 17 -61 c62 -221 237 -382
492 -452 76 -21 100 -22 480 -23 383 0 404 1 488 23 97 24 205 74 279 129 102
75 190 206 221 332 15 57 20 58 32 1 12 -63 82 -194 135 -252 88 -99 222 -173
386 -215 60 -16 120 -18 459 -18 372 0 394 1 480 23 131 33 241 91 328 172 84
79 132 154 167 262 l26 78 22 -73 c63 -213 253 -381 492 -436 119 -28 278 -33
625 -22 335 10 365 15 504 84 57 27 107 62 153 105 l68 64 0 893 0 893 -70 65
c-76 70 -190 133 -295 162 -83 23 -657 41 -833 26 -334 -29 -574 -203 -648
-469 l-18 -63 -25 78 c-36 109 -83 183 -168 263 -86 80 -198 139 -329 172 -85
22 -107 23 -484 22 -375 0 -399 -1 -475 -22 -216 -59 -375 -180 -453 -343 -22
-46 -43 -100 -47 -119 -12 -57 -17 -56 -32 1 -24 98 -82 198 -160 276 -60 59
-92 82 -175 122 -171 82 -200 86 -658 86 -375 -1 -399 -2 -475 -23 -139 -38
-239 -94 -331 -186 -88 -87 -131 -159 -161 -266 l-17 -61 -25 78 c-71 216
-240 367 -487 434 -72 20 -109 23 -426 27 -355 4 -465 -3 -576 -35 -127 -36
-245 -106 -326 -193 -59 -64 -132 -198 -142 -261 -8 -51 -20 -50 -29 2 -11 62
-78 187 -135 251 -86 97 -212 169 -375 214 -50 15 -120 18 -435 20 -206 1
-402 -2 -435 -7z m647 -155 l117 -17 54 -56 55 -56 61 -585 c34 -322 64 -604
67 -628 l6 -43 -98 3 -99 3 -12 135 c-6 74 -17 190 -24 258 l-12 122 -307 0
c-249 0 -309 -3 -313 -14 -3 -7 -13 -109 -22 -227 -8 -118 -18 -229 -21 -246
l-5 -33 -99 0 c-55 0 -100 1 -100 3 0 1 31 285 69 631 l70 629 50 51 c51 51
51 51 154 67 135 22 266 23 409 3z m2099 4 l88 -11 54 -56 c51 -53 55 -60 66
-128 14 -94 14 -387 -1 -485 -11 -75 -13 -79 -67 -132 -55 -54 -59 -56 -131
-66 -41 -5 -182 -10 -312 -10 l-238 0 0 -250 0 -251 -87 3 -88 3 -3 698 -2
697 316 0 c186 0 353 -5 405 -12z m2149 -78 l0 -90 -325 0 -325 0 0 -215 0
-215 280 0 280 0 0 -90 0 -90 -280 0 -280 0 0 -215 0 -215 335 0 335 0 0 -90
0 -90 -425 0 -425 0 0 700 0 700 415 0 415 0 0 -90z m1383 -206 c98 -159 181
-290 185 -292 5 -1 91 129 192 290 101 161 185 295 187 297 4 6 155 -47 165
-57 4 -4 -78 -147 -183 -317 -105 -170 -193 -315 -196 -321 -3 -7 80 -149 183
-316 103 -166 187 -309 188 -316 1 -15 -139 -76 -154 -67 -4 3 -90 131 -190
285 -100 154 -185 280 -190 280 -4 0 -87 -126 -185 -280 -98 -155 -182 -283
-186 -285 -6 -4 -146 49 -157 59 -2 3 83 144 188 316 105 171 189 317 186 325
-2 7 -88 149 -190 314 -102 166 -186 305 -186 310 0 10 141 71 155 67 6 -1 90
-133 188 -292z m2053 285 c41 -11 48 -17 72 -66 l26 -54 28 54 c24 49 31 56
72 66 57 14 274 14 352 0 52 -9 66 -17 117 -67 l57 -56 0 -633 0 -633 -95 0
-95 0 0 599 0 599 -22 6 c-34 9 -291 7 -305 -2 -10 -6 -13 -94 -15 -363 l-3
-354 -92 -1 -93 -1 0 357 0 358 -22 6 c-30 8 -282 8 -302 0 -14 -6 -16 -68
-16 -605 l0 -599 -95 0 -95 0 0 633 0 633 58 56 c49 49 64 58 112 66 78 14
303 14 356 1z"/>
<path d="M912 7045 c-39 -6 -74 -14 -76 -16 -3 -2 -14 -103 -25 -224 -12 -121
-24 -235 -27 -252 l-5 -33 296 0 c229 0 295 3 295 13 0 24 -53 492 -56 496 -2
2 -36 10 -76 17 -89 16 -228 16 -326 -1z"/>
<path d="M2830 6790 l0 -270 228 0 c228 1 304 8 325 29 9 9 12 81 12 246 0
128 -2 236 -5 239 -16 15 -159 26 -347 26 l-213 0 0 -270z"/>
<path d="M10705 7381 c-77 -5 -169 -16 -205 -25 -191 -50 -361 -184 -439 -345
-22 -46 -43 -103 -47 -127 -7 -46 -23 -60 -25 -21 0 12 -6 40 -14 62 -11 34
-13 -72 -13 -690 -1 -497 2 -722 9 -705 6 14 12 41 13 60 5 50 23 48 30 -4 4
-24 25 -81 47 -127 57 -117 170 -230 289 -287 126 -60 181 -72 405 -83 285
-15 615 -6 725 21 242 59 429 225 492 437 l22 73 26 -78 c35 -108 83 -183 167
-262 87 -81 197 -139 328 -172 86 -22 109 -23 475 -23 447 0 478 4 649 87 138
66 230 155 289 279 22 46 43 100 47 119 12 57 17 56 32 -1 58 -231 248 -403
518 -465 71 -17 124 -19 475 -19 375 1 399 2 475 23 255 70 430 230 492 452
l17 61 25 -78 c70 -215 240 -367 486 -435 77 -21 98 -22 490 -22 394 0 413 1
490 22 207 58 362 177 444 341 22 46 44 101 47 122 8 51 20 50 29 -2 21 -126
152 -296 290 -377 170 -99 282 -116 756 -109 385 5 421 10 564 77 190 88 316
237 360 422 22 93 22 1213 0 1306 -54 229 -234 400 -500 474 -77 21 -97 22
-485 23 -367 0 -412 -2 -475 -19 -156 -42 -290 -119 -375 -214 -57 -64 -124
-189 -135 -251 -9 -52 -21 -53 -29 -2 -10 63 -83 197 -142 261 -88 95 -213
165 -369 206 -63 17 -110 19 -475 19 -387 -1 -408 -2 -484 -23 -131 -36 -237
-94 -319 -172 -85 -81 -133 -155 -168 -263 l-25 -78 -17 61 c-30 107 -73 179
-161 266 -92 92 -192 148 -331 186 -76 21 -100 22 -475 23 -458 0 -487 -4
-658 -86 -83 -40 -115 -63 -175 -122 -78 -78 -136 -178 -160 -276 -15 -57 -20
-58 -32 -1 -4 19 -25 73 -47 119 -78 163 -238 284 -453 343 -76 21 -100 22
-470 23 -344 0 -399 -2 -468 -18 -160 -38 -287 -107 -383 -208 -65 -69 -103
-134 -135 -232 l-25 -78 -18 63 c-50 180 -189 331 -375 408 -133 54 -192 62
-486 65 -148 2 -333 0 -410 -4z m4910 -167 l58 -66 -288 -288 c-270 -270 -288
-290 -273 -307 8 -10 134 -153 278 -317 l263 -300 -39 -33 c-22 -19 -55 -47
-75 -63 l-36 -29 -268 315 c-147 173 -272 317 -276 320 -5 3 -29 -12 -54 -33
l-44 -38 -1 -267 0 -268 -90 0 -90 0 0 700 0 700 90 0 90 0 0 -316 0 -316 342
336 c188 185 345 336 349 336 3 0 33 -30 64 -66z m-4353 10 l106 -16 54 -57
55 -56 62 -600 c34 -330 64 -612 67 -627 l6 -28 -101 0 -100 0 -5 43 c-3 23
-13 121 -21 217 -8 96 -18 192 -21 213 l-6 37 -309 0 c-280 0 -309 -2 -309
-16 0 -28 -30 -406 -36 -451 l-5 -43 -105 0 -105 0 6 33 c3 17 34 302 70 632
l66 600 52 52 c52 52 53 52 147 66 131 20 304 20 432 1z m2026 4 l84 -11 56
-70 c51 -63 57 -75 68 -145 22 -131 17 -245 -14 -332 l-27 -75 -89 -46 -89
-46 54 -20 c30 -11 71 -26 91 -34 35 -12 40 -20 68 -92 l30 -79 0 -219 0 -219
-90 0 -90 0 0 203 c0 155 -4 216 -15 256 -15 49 -19 53 -72 76 -53 24 -63 25
-274 25 l-219 0 0 -280 0 -280 -95 0 -95 0 0 700 0 700 318 0 c187 0 351 -5
400 -12z m4202 -78 l0 -90 -325 0 -325 0 0 -215 0 -215 280 0 280 0 0 -90 0
-90 -280 0 -280 0 0 -215 0 -215 335 0 335 0 0 -90 0 -90 -425 0 -425 0 0 700
0 700 415 0 415 0 0 -90z m2070 0 l0 -90 -200 0 -200 0 0 -610 0 -610 -90 0
-90 0 0 610 0 610 -200 0 -200 0 0 90 0 90 490 0 490 0 0 -90z"/>
<path d="M10863 7039 c-29 -6 -53 -14 -53 -18 0 -16 -40 -417 -45 -458 l-6
-43 294 0 293 0 -23 213 c-34 313 -31 294 -56 302 -36 12 -348 15 -404 4z"/>
<path d="M12760 6825 l0 -235 220 0 c214 0 222 1 269 24 61 31 71 63 71 218 0
170 0 170 -76 202 -63 25 -70 26 -274 26 l-210 0 0 -235z"/>
<path d="M4132 2313 l-1332 -2308 3600 -3 c1980 -1 5220 -1 7200 0 l3600 3
-1331 2305 c-732 1268 -1332 2306 -1334 2308 -1 2 -23 2 -49 0 l-46 -3 1305
-2260 c718 -1243 1305 -2263 1305 -2267 0 -5 -3173 -8 -7051 -8 -6711 0 -7051
1 -7044 18 3 9 589 1027 1302 2262 713 1235 1298 2248 1300 2253 2 4 -18 7
-44 7 l-48 0 -1333 -2307z"/>
</g>
</svg>
